<svg xmlns="http://www.w3.org/2000/svg" width="800" height="500" viewBox="0 0 800 500" role="img" aria-label="The Abyssal Sigh">
  <defs>
    <linearGradient id="bgA" x1="0" y1="0" x2="0" y2="1">
      <stop offset="0%" stop-color="#0e1a20"/>
      <stop offset="45%" stop-color="#12262e"/>
      <stop offset="100%" stop-color="#070c10"/>
    </linearGradient>
    <radialGradient id="deepA" cx="50%" cy="82%" r="55%">
      <stop offset="0%" stop-color="rgba(46,107,98,0.4)"/>
      <stop offset="100%" stop-color="rgba(46,107,98,0)"/>
    </radialGradient>
    <radialGradient id="vigA" cx="50%" cy="46%" r="72%">
      <stop offset="60%" stop-color="rgba(0,0,0,0)"/>
      <stop offset="100%" stop-color="rgba(1,3,5,0.8)"/>
    </radialGradient>
    <filter id="grainA">
      <feTurbulence type="fractalNoise" baseFrequency="0.8" numOctaves="2" stitchTiles="stitch"/>
      <feColorMatrix type="saturate" values="0"/>
      <feComponentTransfer><feFuncA type="linear" slope="0.07"/></feComponentTransfer>
    </filter>
  </defs>
  <rect width="800" height="500" fill="url(#bgA)"/>
  <rect width="800" height="500" fill="url(#deepA)"/>
  <g fill="none" stroke="#c9a25e">
    <ellipse cx="400" cy="310" rx="180" ry="44" stroke-width="1.1" opacity=".5"/>
    <ellipse cx="400" cy="330" rx="240" ry="56" stroke-width="1.1" opacity=".38"/>
    <ellipse cx="400" cy="352" rx="310" ry="70" stroke-width="1.1" opacity=".26"/>
    <ellipse cx="400" cy="380" rx="390" ry="86" stroke-width="1.1" opacity=".16"/>
  </g>
  <g fill="none" stroke="#e3c07d" stroke-width="1.3">
    <ellipse cx="400" cy="288" rx="120" ry="32" stroke-dasharray="5 7" opacity=".85"/>
    <ellipse cx="400" cy="292" rx="66" ry="19" opacity=".9"/>
    <ellipse cx="400" cy="296" rx="26" ry="9" stroke-dasharray="3 5"/>
  </g>
  <g fill="#e3c07d">
    <circle cx="400" cy="300" r="2.5"/>
    <circle cx="336" cy="282" r="1.6"/>
    <circle cx="462" cy="284" r="1.6"/>
    <circle cx="284" cy="300" r="1.3"/>
    <circle cx="518" cy="302" r="1.3"/>
  </g>
  <g fill="#c9a25e" opacity=".9">
    <rect x="146" y="118" width="8" height="8" transform="rotate(45 150 122)"/>
    <rect x="648" y="132" width="8" height="8" transform="rotate(45 652 136)"/>
    <rect x="228" y="414" width="6" height="6" transform="rotate(45 231 417)"/>
    <rect x="568" y="408" width="6" height="6" transform="rotate(45 571 411)"/>
  </g>
  <g fill="none" stroke="#8a6c3d" stroke-width="1">
    <rect x="14" y="14" width="772" height="472"/>
    <rect x="19" y="19" width="762" height="462"/>
  </g>
  <g fill="#c9a25e">
    <circle cx="14" cy="14" r="3"/><circle cx="786" cy="14" r="3"/>
    <circle cx="14" cy="486" r="3"/><circle cx="786" cy="486" r="3"/>
  </g>
  <text x="400" y="196" text-anchor="middle" font-family="Georgia, 'Times New Roman', serif" font-size="34" font-style="italic" fill="#f0e5c8" letter-spacing="3">The Abyssal Sigh</text>
  <text x="400" y="228" text-anchor="middle" font-family="'Courier New', monospace" font-size="12" fill="#c9a25e" letter-spacing="7">№ 04 · 2026</text>
  <rect width="800" height="500" fill="url(#vigA)"/>
  <rect width="800" height="500" filter="url(#grainA)"/>
</svg>